<svg id="Layer_1" data-name="Layer 1" xmlns="http://www.w3.org/2000/svg" viewBox="0 0 512 512"><defs><style>.cls-1{fill:#cad8dd;}.cls-2{fill:#44bc4f;}.cls-3{opacity:0.08;}.cls-4{fill:#17292d;}</style></defs><title>glass-4-flat</title><path class="cls-1" d="M449.41,202.42a38.92,38.92,0,0,1-27.58,11.46A38.5,38.5,0,0,1,405.06,210l-15.1,15L155.33,459.77a91,91,0,0,1-128.7,0c-1.09-1.09-2.11-2.24-3.2-3.39-.7-.9-1.47-1.79-2.24-2.69s-1.22-1.54-1.86-2.3c0-.06-.06-.06-.06-.13-1.34-1.66-2.56-3.33-3.71-5.06l-1.15-1.73a3.66,3.66,0,0,1-.32-.51c-.83-1.34-1.66-2.75-2.43-4.16a4.84,4.84,0,0,1-.64-1.09A91,91,0,0,1,26.62,331.06l6.27-6.21,9-9.09L55.49,302.2l9-9,13.63-13.57,9-9.09,22.66-22.66,13.57-13.57,9-9L146,211.7,168.64,189l9-9,13.57-13.57,9.09-9.09,13.57-13.57,9.09-9,53.38-53.44A39,39,0,0,1,339.07,37L449.41,147.32a11.36,11.36,0,0,1,.77.9,2.74,2.74,0,0,1,.83.9A39,39,0,0,1,449.41,202.42Z"/><path class="cls-2" d="M512,345.59a51.2,51.2,0,0,1-102.4,0c0-28.28,51.2-76.8,51.2-76.8S512,317.31,512,345.59Z"/><path class="cls-2" d="M88.94,268.79l-62.3,62.3A91,91,0,1,0,155.3,459.75l191-191Z"/><g class="cls-3"><path class="cls-4" d="M449.41,202.42a38.92,38.92,0,0,1-27.58,11.46A38.5,38.5,0,0,1,405.06,210l-15.1,15L155.33,459.77a91,91,0,0,1-128.7,0c-1.09-1.09-2.11-2.24-3.2-3.39-.7-.9-1.47-1.79-2.24-2.69s-1.22-1.54-1.86-2.3c-1-1.28-2-2.62-2.94-4-.64-1-1.34-1.86-2-2.88-1.22-1.86-2.37-3.84-3.46-5.82A90.85,90.85,0,0,0,118.53,423L366.66,174.84l36.8-36.74,18.37-18.37,27.58,27.58a11.36,11.36,0,0,1,.77.9,11,11,0,0,0,.77.9H451A39,39,0,0,1,449.41,202.42Z"/></g><g class="cls-3"><path class="cls-4" d="M245.44,166.33a6.37,6.37,0,0,1-9,0L213.89,143.8l9.09-9,22.46,22.46A6.45,6.45,0,0,1,245.44,166.33Z"/></g><g class="cls-3"><path class="cls-4" d="M236.42,202.55a6.57,6.57,0,0,1-9.09,0l-36.1-36.1,9.09-9.09,36.1,36.1A6.45,6.45,0,0,1,236.42,202.55Z"/></g><g class="cls-3"><path class="cls-4" d="M155.07,202.62l36.1,36.1a6.43,6.43,0,1,1-9.09,9.09L146,211.7Z"/></g><g class="cls-3"><path class="cls-4" d="M132.42,225.27l22.53,22.53a6.38,6.38,0,0,1-9,9L123.39,234.3Z"/></g><g class="cls-3"><path class="cls-4" d="M177.66,180l22.53,22.53a6.38,6.38,0,0,1-9,9L168.64,189Z"/></g><g class="cls-3"><path class="cls-4" d="M109.7,302.07a6.45,6.45,0,0,1-9.09,0L78.14,279.61l9-9.09L109.7,293A6.37,6.37,0,0,1,109.7,302.07Z"/></g><g class="cls-3"><path class="cls-4" d="M100.61,338.3a6.37,6.37,0,0,1-9,0l-36.1-36.1,9-9,36.1,36.1A6.37,6.37,0,0,1,100.61,338.3Z"/></g><g class="cls-3"><path class="cls-4" d="M145.92,293a6.45,6.45,0,0,1-9.09,0L100.74,257l9.09-9.09,36.1,36.1A6.57,6.57,0,0,1,145.92,293Z"/></g><g class="cls-3"><path class="cls-4" d="M64.45,347.32a6.45,6.45,0,0,1-9.09,0L32.9,324.86l9-9.09L64.45,338.3A6.37,6.37,0,0,1,64.45,347.32Z"/></g></svg>